0
SECTION
2
HEADER
9
$INSUNITS
70
4
9
$ACADVER
1
AC1014
9
$HANDSEED
5
FFFF
0
ENDSEC
0
SECTION
2
TABLES
0
TABLE
2
VPORT
5
8
100
AcDbSymbolTable
0
ENDTAB
0
TABLE
2
LTYPE
5
5
100
AcDbSymbolTable
0
LTYPE
5
14
100
AcDbSymbolTableRecord
100
AcDbLinetypeTableRecord
2
BYBLOCK
70
0
0
LTYPE
5
15
100
AcDbSymbolTableRecord
100
AcDbLinetypeTableRecord
2
BYLAYER
70
0
0
ENDTAB
0
TABLE
2
LAYER
5
2
100
AcDbSymbolTable
70
2
0
LAYER
5
50
100
AcDbSymbolTableRecord
100
AcDbLayerTableRecord
2
0
70
0
6
CONTINUOUS
0
ENDTAB
0
TABLE
2
STYLE
5
3
100
AcDbSymbolTable
70
1
0
STYLE
5
11
100
AcDbSymbolTableRecord
100
AcDbTextStyleTableRecord
2
STANDARD
70
0
0
ENDTAB
0
TABLE
2
VIEW
5
6
100
AcDbSymbolTable
70
0
0
ENDTAB
0
TABLE
2
UCS
5
7
100
AcDbSymbolTable
70
0
0
ENDTAB
0
TABLE
2
APPID
5
9
100
AcDbSymbolTable
70
2
0
APPID
5
12
100
AcDbSymbolTableRecord
100
AcDbRegAppTableRecord
2
ACAD
70
0
0
ENDTAB
0
TABLE
2
DIMSTYLE
5
A
100
AcDbSymbolTable
70
1
0
ENDTAB
0
TABLE
2
BLOCK_RECORD
5
1
100
AcDbSymbolTable
70
1
0
BLOCK_RECORD
5
1F
100
AcDbSymbolTableRecord
100
AcDbBlockTableRecord
2
*MODEL_SPACE
0
BLOCK_RECORD
5
1B
100
AcDbSymbolTableRecord
100
AcDbBlockTableRecord
2
*PAPER_SPACE
0
ENDTAB
0
ENDSEC
0
SECTION
2
BLOCKS
0
BLOCK
5
20
100
AcDbEntity
100
AcDbBlockBegin
2
*MODEL_SPACE
0
ENDBLK
5
21
100
AcDbEntity
100
AcDbBlockEnd
0
BLOCK
5
1C
100
AcDbEntity
100
AcDbBlockBegin
2
*PAPER_SPACE
0
ENDBLK
5
1D
100
AcDbEntity
100
AcDbBlockEnd
0
ENDSEC
0
SECTION
2
ENTITIES
0
CIRCLE
5
100
100
AcDbEntity
8
0
100
AcDbCircle
10
0
20
0
30
0
40
12.000000000000002
210
0
220
-0
230
1
0
LINE
5
101
100
AcDbEntity
8
0
100
AcDbLine
10
-0.96418282923744747
20
-1.4531852372954313
30
0
11
-0.973154972427972
21
-1.4527713737125243
31
0
0
LINE
5
102
100
AcDbEntity
8
0
100
AcDbLine
10
-1.6021294479522536
20
-2.7790905139710538
30
0
11
-1.6021294479522536
21
-2.7790905139710538
31
0
0
SPLINE
5
103
100
AcDbEntity
8
0
100
AcDbSpline
70
4
71
3
72
8
73
4
74
0
42
0.000000001
43
0.0000000001
44
0.0000000001
40
0
40
0
40
0
40
0
40
1
40
1
40
1
40
1
41
1
41
1
41
1
41
1
10
0.95926380509218478
20
-1.6363657327121239
30
0
10
0.47142536515077826
20
-1.6054888625567898
30
0
10
0.51952643428326561
20
-0.96890142715232996
30
0
10
1.0280822789081028
20
-0.7258286106214662
30
0
0
SPLINE
5
104
100
AcDbEntity
8
0
100
AcDbSpline
70
4
71
3
72
8
73
4
74
0
42
0.000000001
43
0.0000000001
44
0.0000000001
40
0
40
0
40
0
40
0
40
1
40
1
40
1
40
1
41
1
41
1
41
1
41
1
10
1.0280822789081028
20
-0.7258286106214662
30
0
10
1.1653215602445695
20
-0.66021205699699548
30
0
10
1.7375359061765761
20
-0.65222158865389623
30
0
10
1.7373772433805557
20
-0.71590673562146656
30
0
0
SPLINE
5
105
100
AcDbEntity
8
0
100
AcDbSpline
70
4
71
3
72
8
73
4
74
0
42
0.000000001
43
0.0000000001
44
0.0000000001
40
0
40
0
40
0
40
0
40
1
40
1
40
1
40
1
41
1
41
1
41
1
41
1
10
1.7373772433805557
20
-0.71590673562146656
30
0
10
1.7373505977201553
20
-0.73199344750501105
30
0
10
1.5081684465615046
20
-1.625094618362759
30
0
10
1.5011836500374569
20
-1.6363923783725243
30
0
0
SPLINE
5
106
100
AcDbEntity
8
0
100
AcDbSpline
70
4
71
3
72
8
73
4
74
0
42
0.000000001
43
0.0000000001
44
0.0000000001
40
0
40
0
40
0
40
0
40
1
40
1
40
1
40
1
41
1
41
1
41
1
41
1
10
1.5011836500374569
20
-1.6363923783725243
30
0
10
1.4956272223997207
20
-1.6454410024112209
30
0
10
1.1020861597267877
20
-1.6453881148125471
30
0
10
0.95926380509218478
20
-1.6363657327121239
30
0
0
SPLINE
5
107
100
AcDbEntity
8
0
100
AcDbSpline
70
4
71
3
72
8
73
4
74
0
42
0.000000001
43
0.0000000001
44
0.0000000001
40
0
40
0
40
0
40
0
40
1
40
1
40
1
40
1
41
1
41
1
41
1
41
1
10
-1.078292299567849
20
-0.64174419200676069
30
0
10
-1.0382608283154082
20
-0.49479458606498827
30
0
10
-1.0030449545971465
20
-0.36776826338228985
30
0
10
-0.99997545526344656
20
-0.35946006572502243
30
0
0
SPLINE
5
108
100
AcDbEntity
8
0
100
AcDbSpline
70
4
71
3
72
8
73
4
74
0
42
0.000000001
43
0.0000000001
44
0.0000000001
40
0
40
0
40
0
40
0
40
1
40
1
40
1
40
1
41
1
41
1
41
1
41
1
10
-0.99997545526344656
20
-0.35946006572502243
30
0
10
-0.99600686675229699
20
-0.34869158542411904
30
0
10
-0.95613405829587661
20
-0.42266922430453102
30
0
10
-0.86067234641233115
20
-0.6179580954338848
30
0
0
LINE
5
109
100
AcDbEntity
8
0
100
AcDbLine
10
-0.86067234641233115
20
-0.61795809543388491
30
0
11
-0.72695190713722535
21
-0.89153736706830466
31
0
0
LINE
5
110
100
AcDbEntity
8
0
100
AcDbLine
10
-0.72695190713722535
20
-0.89153736706830466
30
0
11
-0.41969151145139372
21
-0.88936776435630915
31
0
0
LINE
5
111
100
AcDbEntity
8
0
100
AcDbLine
10
-0.41969151145139372
20
-0.88936776435630915
30
0
11
-0.11245735770383572
21
-0.88719816164431364
31
0
0
LINE
5
112
100
AcDbEntity
8
0
100
AcDbLine
10
-0.11245735770383572
20
-0.88719816164431364
30
0
11
0.10614162161033253
21
-0.07408060189343868
31
0
0
SPLINE
5
113
100
AcDbEntity
8
0
100
AcDbSpline
70
4
71
3
72
8
73
4
74
0
42
0.000000001
43
0.0000000001
44
0.0000000001
40
0
40
0
40
0
40
0
40
1
40
1
40
1
40
1
41
1
41
1
41
1
41
1
10
0.1061416216103328
20
-0.07408060189343868
30
0
10
0.22639469816367663
20
0.37314460321011766
30
0
10
0.32354962064902848
20
0.7401744449510439
30
0
10
0.32209460610231555
20
0.741524088022536
30
0
0
SPLINE
5
114
100
AcDbEntity
8
0
100
AcDbSpline
70
4
71
3
72
8
73
4
74
0
42
0.000000001
43
0.0000000001
44
0.0000000001
40
0
40
0
40
0
40
0
40
1
40
1
40
1
40
1
41
1
41
1
41
1
41
1
10
0.32209460610231555
20
0.741524088022536
30
0
10
0.32061294589520339
20
0.74287332737190126
30
0
10
0.18379676534812539
20
0.74530736807726428
30
0
10
0.018008677503276171
20
0.74694809480252478
30
0
0
LINE
5
115
100
AcDbEntity
8
0
100
AcDbLine
10
0.018008677503276199
20
0.74694809480252478
30
0
11
-0.28337796495277856
21
0.74991141521675009
31
0
0
LINE
5
116
100
AcDbEntity
8
0
100
AcDbLine
10
-0.28337796495277856
20
0.74991141521675009
30
0
11
-0.35981629019895411
21
0.48948197885098682
31
0
0
SPLINE
5
117
100
AcDbEntity
8
0
100
AcDbSpline
70
4
71
3
72
8
73
4
74
0
42
0.000000001
43
0.0000000001
44
0.0000000001
40
0
40
0
40
0
40
0
40
1
40
1
40
1
40
1
41
1
41
1
41
1
41
1
10
-0.35981629019895323
20
0.48948197885098688
30
0
10
-0.40185870136737023
20
0.34620987776659562
30
0
10
-0.43747143393674581
20
0.22344322724881349
30
0
10
-0.4390059817425318
20
0.21661709352078617
30
0
0
SPLINE
5
118
100
AcDbEntity
8
0
100
AcDbSpline
70
4
71
3
72
8
73
4
74
0
42
0.000000001
43
0.0000000001
44
0.0000000001
40
0
40
0
40
0
40
0
40
1
40
1
40
1
40
1
41
1
41
1
41
1
41
1
10
-0.4390059817425318
20
0.21661709352078617
30
0
10
-0.4405142876100443
20
0.20979095979275886
30
0
10
-0.50232091551938862
20
0.32234465165677295
30
0
10
-0.57632479633807354
20
0.46672779603543491
30
0
0
SPLINE
5
119
100
AcDbEntity
8
0
100
AcDbSpline
70
4
71
3
72
8
73
4
74
0
42
0.000000001
43
0.0000000001
44
0.0000000001
40
0
40
0
40
0
40
0
40
1
40
1
40
1
40
1
41
1
41
1
41
1
41
1
10
-0.57632479633807354
20
0.46672779603543491
30
0
10
-0.65032867715675846
20
0.61111094041409686
30
0
10
-0.71163267101763905
20
0.72959127310656124
30
0
10
-0.71250592197894203
20
0.73004101955634948
30
0
0
SPLINE
5
120
100
AcDbEntity
8
0
100
AcDbSpline
70
4
71
3
72
8
73
4
74
0
42
0.000000001
43
0.0000000001
44
0.0000000001
40
0
40
0
40
0
40
0
40
1
40
1
40
1
40
1
41
1
41
1
41
1
41
1
10
-0.71250592197894203
20
0.73004101955634948
30
0
10
-0.71951736416339007
20
0.73345408642036314
30
0
10
-1.3266302582216183
20
0.75208101792874571
30
0
10
-1.3299375498882848
20
0.7489586309963725
30
0
0
SPLINE
5
121
100
AcDbEntity
8
0
100
AcDbSpline
70
4
71
3
72
8
73
4
74
0
42
0.000000001
43
0.0000000001
44
0.0000000001
40
0
40
0
40
0
40
0
40
1
40
1
40
1
40
1
41
1
41
1
41
1
41
1
10
-1.3299375498882848
20
0.7489586309963725
30
0
10
-1.3517922398042603
20
0.72840069655321638
30
0
10
-1.7638278131278262
20
-0.88770079569277627
30
0
10
-1.7483499142122172
20
-0.89211933251477749
30
0
0
SPLINE
5
122
100
AcDbEntity
8
0
100
AcDbSpline
70
4
71
3
72
8
73
4
74
0
42
0.000000001
43
0.0000000001
44
0.0000000001
40
0
40
0
40
0
40
0
40
1
40
1
40
1
40
1
41
1
41
1
41
1
41
1
10
-1.7483499142122172
20
-0.89211933251477749
30
0
10
-1.738851140001606
20
-0.8948182149356354
30
0
10
-1.6005795411856882
20
-0.89971294200676177
30
0
10
-1.4410624691438578
20
-0.90296734607475448
30
0
0
LINE
5
123
100
AcDbEntity
8
0
100
AcDbLine
10
-1.4410624691438576
20
-0.90296734607475448
30
0
11
-1.1510260705741149
21
-0.90889398690320489
31
0
0
LINE
5
124
100
AcDbEntity
8
0
100
AcDbLine
10
-1.1510260705741149
20
-0.90889398690320489
30
0
11
-1.078292299567849
21
-0.64174419200676069
31
0
0
SPLINE
5
125
100
AcDbEntity
8
0
100
AcDbSpline
70
4
71
3
72
8
73
4
74
0
42
0.000000001
43
0.0000000001
44
0.0000000001
40
0
40
0
40
0
40
0
40
1
40
1
40
1
40
1
41
1
41
1
41
1
41
1
10
1.5141746206490292
20
0.20013352278612673
30
0
10
1.2621062695392067
20
0.21397109869860209
30
0
10
1.1675174048948378
20
0.24921361807726417
30
0
10
1.0378717330503555
20
0.37766911709052942
30
0
0
SPLINE
5
126
100
AcDbEntity
8
0
100
AcDbSpline
70
4
71
3
72
8
73
4
74
0
42
0.000000001
43
0.0000000001
44
0.0000000001
40
0
40
0
40
0
40
0
40
1
40
1
40
1
40
1
41
1
41
1
41
1
41
1
10
1.0378717330503555
20
0.37766911709052942
30
0
10
0.94489694947084701
20
0.46979689164700689
30
0
10
0.93534569138368884
20
0.49292128765327348
30
0
10
0.93553099984010957
20
0.6252924875790139
30
0
0
SPLINE
5
127
100
AcDbEntity
8
0
100
AcDbSpline
70
4
71
3
72
8
73
4
74
0
42
0.000000001
43
0.0000000001
44
0.0000000001
40
0
40
0
40
0
40
0
40
1
40
1
40
1
40
1
41
1
41
1
41
1
41
1
10
0.93553099984010957
20
0.6252924875790139
30
0
10
0.93592785869122452
20
0.93048945947232564
30
0
10
1.1779685596037004
20
1.1945701587571966
30
0
10
1.4854671513446265
20
1.2253144061937205
30
0
0
SPLINE
5
128
100
AcDbEntity
8
0
100
AcDbSpline
70
4
71
3
72
8
73
4
74
0
42
0.000000001
43
0.0000000001
44
0.0000000001
40
0
40
0
40
0
40
0
40
1
40
1
40
1
40
1
41
1
41
1
41
1
41
1
10
1.4854671513446265
20
1.2253144061937205
30
0
10
1.645275710762351
20
1.2412953428799178
30
0
10
2.2217497288592747
20
1.2404753832394155
30
0
10
2.2380481929985772
20
1.2242562504981225
30
0
0
SPLINE
5
129
100
AcDbEntity
8
0
100
AcDbSpline
70
4
71
3
72
8
73
4
74
0
42
0.000000001
43
0.0000000001
44
0.0000000001
40
0
40
0
40
0
40
0
40
1
40
1
40
1
40
1
41
1
41
1
41
1
41
1
10
2.2380481929985772
20
1.2242562504981225
30
0
10
2.2505894171603611
20
1.2117945595954127
30
0
10
2.2417523435163589
20
1.1733505237474307
30
0
10
2.1185359465487892
20
0.70509099209052961
30
0
0
SPLINE
5
130
100
AcDbEntity
8
0
100
AcDbSpline
70
4
71
3
72
8
73
4
74
0
42
0.000000001
43
0.0000000001
44
0.0000000001
40
0
40
0
40
0
40
0
40
1
40
1
40
1
40
1
41
1
41
1
41
1
41
1
10
2.1185359465487892
20
0.70509099209052961
30
0
10
2.0453520253706072
20
0.42696076277636108
30
0
10
1.9854503603188289
20
0.19769948208076371
30
0
10
1.9854503603188289
20
0.19560900890571498
30
0
0
SPLINE
5
131
100
AcDbEntity
8
0
100
AcDbSpline
70
4
71
3
72
8
73
4
74
0
42
0.000000001
43
0.0000000001
44
0.0000000001
40
0
40
0
40
0
40
0
40
1
40
1
40
1
40
1
41
1
41
1
41
1
41
1
10
1.9854503603188289
20
0.19560900890571498
30
0
10
1.9854503603188289
20
0.18886240843676128
30
0
10
1.6632142960437228
20
0.19195774598660675
30
0
10
1.5141746206490292
20
0.20013352278612673
30
0
0
SPLINE
5
132
100
AcDbEntity
8
0
100
AcDbSpline
70
4
71
3
72
8
73
4
74
0
42
0.000000001
43
0.0000000001
44
0.0000000001
40
0
40
0
40
0
40
0
40
1
40
1
40
1
40
1
41
1
41
1
41
1
41
1
10
-1.7483499142122172
20
-0.89211933251477749
30
0
10
-1.7638278131278262
20
-0.88770079569277627
30
0
10
-1.3517922398042603
20
0.72840069655321638
30
0
10
-1.3299375498882848
20
0.7489586309963725
30
0
0
SPLINE
5
133
100
AcDbEntity
8
0
100
AcDbSpline
70
4
71
3
72
8
73
4
74
0
42
0.000000001
43
0.0000000001
44
0.0000000001
40
0
40
0
40
0
40
0
40
1
40
1
40
1
40
1
41
1
41
1
41
1
41
1
10
-1.3299375498882848
20
0.7489586309963725
30
0
10
-1.3266302582216183
20
0.75208101792874571
30
0
10
-0.71951736416339007
20
0.73345408642036314
30
0
10
-0.71250592197894203
20
0.73004101955634948
30
0
0
SPLINE
5
134
100
AcDbEntity
8
0
100
AcDbSpline
70
4
71
3
72
8
73
4
74
0
42
0.000000001
43
0.0000000001
44
0.0000000001
40
0
40
0
40
0
40
0
40
1
40
1
40
1
40
1
41
1
41
1
41
1
41
1
10
-0.71250592197894203
20
0.73004101955634948
30
0
10
-0.71163267101763905
20
0.72959127310656124
30
0
10
-0.65032867715675846
20
0.61111094041409686
30
0
10
-0.57632479633807354
20
0.46672779603543491
30
0
0
SPLINE
5
135
100
AcDbEntity
8
0
100
AcDbSpline
70
4
71
3
72
8
73
4
74
0
42
0.000000001
43
0.0000000001
44
0.0000000001
40
0
40
0
40
0
40
0
40
1
40
1
40
1
40
1
41
1
41
1
41
1
41
1
10
-0.57632479633807354
20
0.46672779603543491
30
0
10
-0.50232091551938862
20
0.32234465165677295
30
0
10
-0.4405142876100443
20
0.20979095979275886
30
0
10
-0.4390059817425318
20
0.21661709352078617
30
0
0
SPLINE
5
136
100
AcDbEntity
8
0
100
AcDbSpline
70
4
71
3
72
8
73
4
74
0
42
0.000000001
43
0.0000000001
44
0.0000000001
40
0
40
0
40
0
40
0
40
1
40
1
40
1
40
1
41
1
41
1
41
1
41
1
10
-0.4390059817425318
20
0.21661709352078617
30
0
10
-0.43747143393674581
20
0.22344322724881349
30
0
10
-0.40185870136737023
20
0.34620987776659562
30
0
10
-0.35981629019895323
20
0.48948197885098688
30
0
0
LINE
5
137
100
AcDbEntity
8
0
100
AcDbLine
10
-0.35981629019895411
20
0.48948197885098682
30
0
11
-0.28337796495277856
21
0.74991141521675009
31
0
0
LINE
5
138
100
AcDbEntity
8
0
100
AcDbLine
10
-0.28337796495277856
20
0.74991141521675009
30
0
11
0.018008677503276199
21
0.74694809480252478
31
0
0
SPLINE
5
139
100
AcDbEntity
8
0
100
AcDbSpline
70
4
71
3
72
8
73
4
74
0
42
0.000000001
43
0.0000000001
44
0.0000000001
40
0
40
0
40
0
40
0
40
1
40
1
40
1
40
1
41
1
41
1
41
1
41
1
10
0.018008677503276171
20
0.74694809480252478
30
0
10
0.18379676534812539
20
0.74530736807726428
30
0
10
0.32061294589520339
20
0.74287332737190126
30
0
10
0.32209460610231555
20
0.741524088022536
30
0
0
SPLINE
5
140
100
AcDbEntity
8
0
100
AcDbSpline
70
4
71
3
72
8
73
4
74
0
42
0.000000001
43
0.0000000001
44
0.0000000001
40
0
40
0
40
0
40
0
40
1
40
1
40
1
40
1
41
1
41
1
41
1
41
1
10
0.32209460610231555
20
0.741524088022536
30
0
10
0.32354962064902848
20
0.7401744449510439
30
0
10
0.22639469816367663
20
0.37314460321011766
30
0
10
0.1061416216103328
20
-0.07408060189343868
30
0
0
LINE
5
141
100
AcDbEntity
8
0
100
AcDbLine
10
0.10614162161033253
20
-0.07408060189343868
30
0
11
-0.11245735770383572
21
-0.88719816164431364
31
0
0
LINE
5
142
100
AcDbEntity
8
0
100
AcDbLine
10
-0.11245735770383572
20
-0.88719816164431364
30
0
11
-0.41969151145139372
21
-0.88936776435630915
31
0
0
LINE
5
143
100
AcDbEntity
8
0
100
AcDbLine
10
-0.41969151145139372
20
-0.88936776435630915
30
0
11
-0.72695190713722535
21
-0.89153736706830466
31
0
0
LINE
5
144
100
AcDbEntity
8
0
100
AcDbLine
10
-0.72695190713722535
20
-0.89153736706830466
30
0
11
-0.86067234641233115
21
-0.61795809543388491
31
0
0
SPLINE
5
145
100
AcDbEntity
8
0
100
AcDbSpline
70
4
71
3
72
8
73
4
74
0
42
0.000000001
43
0.0000000001
44
0.0000000001
40
0
40
0
40
0
40
0
40
1
40
1
40
1
40
1
41
1
41
1
41
1
41
1
10
-0.86067234641233115
20
-0.6179580954338848
30
0
10
-0.95613405829587661
20
-0.42266922430453102
30
0
10
-0.99600686675229699
20
-0.34869158542411904
30
0
10
-0.99997545526344656
20
-0.35946006572502243
30
0
0
SPLINE
5
146
100
AcDbEntity
8
0
100
AcDbSpline
70
4
71
3
72
8
73
4
74
0
42
0.000000001
43
0.0000000001
44
0.0000000001
40
0
40
0
40
0
40
0
40
1
40
1
40
1
40
1
41
1
41
1
41
1
41
1
10
-0.99997545526344656
20
-0.35946006572502243
30
0
10
-1.0030449545971465
20
-0.36776826338228985
30
0
10
-1.0382608283154082
20
-0.49479458606498827
30
0
10
-1.078292299567849
20
-0.64174419200676069
30
0
0
LINE
5
147
100
AcDbEntity
8
0
100
AcDbLine
10
-1.078292299567849
20
-0.64174419200676069
30
0
11
-1.1510260705741149
21
-0.90889398690320489
31
0
0
LINE
5
148
100
AcDbEntity
8
0
100
AcDbLine
10
-1.1510260705741149
20
-0.90889398690320489
30
0
11
-1.4410624691438576
21
-0.90296734607475448
31
0
0
SPLINE
5
149
100
AcDbEntity
8
0
100
AcDbSpline
70
4
71
3
72
8
73
4
74
0
42
0.000000001
43
0.0000000001
44
0.0000000001
40
0
40
0
40
0
40
0
40
1
40
1
40
1
40
1
41
1
41
1
41
1
41
1
10
-1.4410624691438578
20
-0.90296734607475448
30
0
10
-1.6005795411856882
20
-0.89971294200676177
30
0
10
-1.738851140001606
20
-0.8948182149356354
30
0
10
-1.7483499142122172
20
-0.89211933251477749
30
0
0
SPLINE
5
150
100
AcDbEntity
8
0
100
AcDbSpline
70
4
71
3
72
8
73
4
74
0
42
0.000000001
43
0.0000000001
44
0.0000000001
40
0
40
0
40
0
40
0
40
1
40
1
40
1
40
1
41
1
41
1
41
1
41
1
10
0.546778485318829
20
-4.2064754062395044
30
0
10
3.017087366124799
20
-4.0332262417302269
30
0
10
4.9711146242825297
20
-2.5828862042849998
30
0
10
5.3587292038309675
20
-0.6349971878156796
30
0
0
SPLINE
5
151
100
AcDbEntity
8
0
100
AcDbSpline
70
4
71
3
72
8
73
4
74
0
42
0.000000001
43
0.0000000001
44
0.0000000001
40
0
40
0
40
0
40
0
40
1
40
1
40
1
40
1
41
1
41
1
41
1
41
1
10
5.3587292038309675
20
-0.6349971878156796
30
0
10
5.4356964949551321
20
-0.24825601693250099
30
0
10
5.4356964949551321
20
0.28461520397407458
30
0
10
5.3587292038309675
20
0.67138302051765408
30
0
0
SPLINE
5
152
100
AcDbEntity
8
0
100
AcDbSpline
70
4
71
3
72
8
73
4
74
0
42
0.000000001
43
0.0000000001
44
0.0000000001
40
0
40
0
40
0
40
0
40
1
40
1
40
1
40
1
41
1
41
1
41
1
41
1
10
5.3587292038309675
20
0.67138302051765408
30
0
10
4.8482420976368683
20
3.2367565524949904
30
0
10
1.6299564746427624
20
4.8349987908576209
30
0
10
-1.465086358049702
20
4.0601930479580428
30
0
0
SPLINE
5
153
100
AcDbEntity
8
0
100
AcDbSpline
70
4
71
3
72
8
73
4
74
0
42
0.000000001
43
0.0000000001
44
0.0000000001
40
0
40
0
40
0
40
0
40
1
40
1
40
1
40
1
41
1
41
1
41
1
41
1
10
-1.465086358049702
20
4.0601930479580428
30
0
10
-4.0448005037101034
20
3.4143975182746109
30
0
10
-5.5949150272798454
20
1.3134735922390472
30
0
10
-5.0666212078523554
20
-0.82105212644991765
30
0
0
SPLINE
5
154
100
AcDbEntity
8
0
100
AcDbSpline
70
4
71
3
72
8
73
4
74
0
42
0.000000001
43
0.0000000001
44
0.0000000001
40
0
40
0
40
0
40
0
40
1
40
1
40
1
40
1
41
1
41
1
41
1
41
1
10
-5.0666212078523554
20
-0.82105212644991765
30
0
10
-4.6199785737784627
20
-2.6256693446264419
30
0
10
-2.7700381974967234
20
-3.976446648202911
30
0
10
-0.44540901468117067
20
-4.1953364478052411
30
0
0
SPLINE
5
155
100
AcDbEntity
8
0
100
AcDbSpline
70
4
71
3
72
8
73
4
74
0
42
0.000000001
43
0.0000000001
44
0.0000000001
40
0
40
0
40
0
40
0
40
1
40
1
40
1
40
1
41
1
41
1
41
1
41
1
10
-0.44540901468117067
20
-4.1953364478052411
30
0
10
-0.28533601727007918
20
-4.210391239623303
30
0
10
0.38371592555523915
20
-4.2179318647258111
30
0
10
0.546778485318829
20
-4.2064754062395044
30
0
0
SPLINE
5
156
100
AcDbEntity
8
0
100
AcDbSpline
70
4
71
3
72
8
73
4
74
0
42
0.000000001
43
0.0000000001
44
0.0000000001
40
0
40
0
40
0
40
0
40
1
40
1
40
1
40
1
41
1
41
1
41
1
41
1
10
-1.0220416955741152
20
-1.5817294116443144
30
0
10
-1.0167238677136015
20
-1.4559994407123074
30
0
10
-1.0157977291536235
20
-1.4538033942009747
30
0
10
-0.96748470590431568
20
-1.4526126157865664
30
0
0
SPLINE
5
157
100
AcDbEntity
8
0
100
AcDbSpline
70
4
71
3
72
8
73
4
74
0
42
0.000000001
43
0.0000000001
44
0.0000000001
40
0
40
0
40
0
40
0
40
1
40
1
40
1
40
1
41
1
41
1
41
1
41
1
10
-1.2571242456229437
20
-1.4676145263141138
30
0
10
-1.3219999691438578
20
-1.7132273606087511
30
0
10
-1.5714227291536242
20
-2.6736912842219818
30
0
10
-1.5834084316682728
20
-2.7239620569969958
30
0
0
SPLINE
5
158
100
AcDbEntity
8
0
100
AcDbSpline
70
4
71
3
72
8
73
4
74
0
42
0.000000001
43
0.0000000001
44
0.0000000001
40
0
40
0
40
0
40
0
40
1
40
1
40
1
40
1
41
1
41
1
41
1
41
1
10
-1.5834084316682728
20
-2.7239620569969958
30
0
10
-1.5972197656424747
20
-2.7819852029905467
30
0
10
-1.5980134833447046
20
-2.7831757795438916
30
0
10
-1.6270911658398224
20
-2.7877795238917811
30
0
0
SPLINE
5
159
100
AcDbEntity
8
0
100
AcDbSpline
70
4
71
3
72
8
73
4
74
0
42
0.000000001
43
0.0000000001
44
0.0000000001
40
0
40
0
40
0
40
0
40
1
40
1
40
1
40
1
41
1
41
1
41
1
41
1
10
-1.6270911658398224
20
-2.7877795238917811
30
0
10
-1.7340355424674259
20
-2.8047393858060987
30
0
10
-3.2771648657909935
20
-2.8000033215309927
30
0
10
-3.2945216874869576
20
-2.7826731454954294
30
0
0
SPLINE
5
160
100
AcDbEntity
8
0
100
AcDbSpline
70
4
71
3
72
8
73
4
74
0
42
0.000000001
43
0.0000000001
44
0.0000000001
40
0
40
0
40
0
40
0
40
1
40
1
40
1
40
1
41
1
41
1
41
1
41
1
10
-3.2945216874869576
20
-2.7826731454954294
30
0
10
-3.3011887546968377
20
-2.776005573632891
30
0
10
-3.2709208993705028
20
-2.6572077134873218
30
0
10
-2.9454570766878039
20
-1.4122107294823478
30
0
0
SPLINE
5
161
100
AcDbEntity
8
0
100
AcDbSpline
70
4
71
3
72
8
73
4
74
0
42
0.000000001
43
0.0000000001
44
0.0000000001
40
0
40
0
40
0
40
0
40
1
40
1
40
1
40
1
41
1
41
1
41
1
41
1
10
-2.9454570766878039
20
-1.4122107294823478
30
0
10
-2.7757799335908793
20
-0.76308206991610394
30
0
10
-2.3663629019848429
20
0.79391147498033998
30
0
10
-2.3492450837882286
20
0.85518882318082023
30
0
0
SPLINE
5
162
100
AcDbEntity
8
0
100
AcDbSpline
70
4
71
3
72
8
73
4
74
0
42
0.000000001
43
0.0000000001
44
0.0000000001
40
0
40
0
40
0
40
0
40
1
40
1
40
1
40
1
41
1
41
1
41
1
41
1
10
-2.3492450837882286
20
0.85518882318082023
30
0
10
-2.3387143958202916
20
0.89289202892524511
30
0
10
-2.5195568780692335
20
0.90135888937853292
30
0
10
-3.3682082427136031
20
0.90289343718432002
30
0
0
SPLINE
5
163
100
AcDbEntity
8
0
100
AcDbSpline
70
4
71
3
72
8
73
4
74
0
42
0.000000001
43
0.0000000001
44
0.0000000001
40
0
40
0
40
0
40
0
40
1
40
1
40
1
40
1
41
1
41
1
41
1
41
1
10
-3.3682082427136031
20
0.90289343718432002
30
0
10
-3.8917389484834599
20
0.90384581768257033
30
0
10
-4.1932846574576619
20
0.9107777266079442
30
0
10
-4.2046357087882278
20
0.92212837421638327
30
0
0
SPLINE
5
164
100
AcDbEntity
8
0
100
AcDbSpline
70
4
71
3
72
8
73
4
74
0
42
0.000000001
43
0.0000000001
44
0.0000000001
40
0
40
0
40
0
40
0
40
1
40
1
40
1
40
1
41
1
41
1
41
1
41
1
10
-4.2046357087882278
20
0.92212837421638327
30
0
10
-4.2110120960664679
20
0.92847851955634941
30
0
10
-4.1601059655936474
20
1.1349593754981213
30
0
10
-3.9881800902477824
20
1.7999894384914894
30
0
0
SPLINE
5
165
100
AcDbEntity
8
0
100
AcDbSpline
70
4
71
3
72
8
73
4
74
0
42
0.000000001
43
0.0000000001
44
0.0000000001
40
0
40
0
40
0
40
0
40
1
40
1
40
1
40
1
41
1
41
1
41
1
41
1
10
-3.9881800902477824
20
1.7999894384914894
30
0
10
-3.9176684058300584
20
2.0728280818834168
30
0
10
-3.8521047398042607
20
2.3267749520514669
30
0
10
-3.8425001903963008
20
2.364292849339471
30
0
0
LINE
5
166
100
AcDbEntity
8
0
100
AcDbLine
10
-3.8425001903963008
20
2.364292849339471
30
0
11
-3.8250642391633907
21
2.4325025101874527
31
0
0
LINE
5
167
100
AcDbEntity
8
0
100
AcDbLine
10
-3.8250642391633907
20
2.4325025101874527
30
0
11
-2.6044620637686973
21
2.4317883257442974
31
0
0
SPLINE
5
168
100
AcDbEntity
8
0
100
AcDbSpline
70
4
71
3
72
8
73
4
74
0
42
0.000000001
43
0.0000000001
44
0.0000000001
40
0
40
0
40
0
40
0
40
1
40
1
40
1
40
1
41
1
41
1
41
1
41
1
10
-2.6044620637686968
20
2.4317883257442974
30
0
10
-1.2998013079754434
20
2.4310208499803396
30
0
10
-0.25152227049985654
20
2.423294819630609
30
0
10
-0.24263230925718138
20
2.4143786164496595
30
0
0
SPLINE
5
169
100
AcDbEntity
8
0
100
AcDbSpline
70
4
71
3
72
8
73
4
74
0
42
0.000000001
43
0.0000000001
44
0.0000000001
40
0
40
0
40
0
40
0
40
1
40
1
40
1
40
1
41
1
41
1
41
1
41
1
10
-0.24263230925718138
20
2.4143786164496595
30
0
10
-0.23961610124428212
20
2.4113886503750348
30
0
10
-0.2862621558300571
20
2.2216824488216891
30
0
10
-0.34629603987851865
20
1.9928442689154802
30
0
0
SPLINE
5
170
100
AcDbEntity
8
0
100
AcDbSpline
70
4
71
3
72
8
73
4
74
0
42
0.000000001
43
0.0000000001
44
0.0000000001
40
0
40
0
40
0
40
0
40
1
40
1
40
1
40
1
41
1
41
1
41
1
41
1
10
-0.34629603987851865
20
1.9928442689154802
30
0
10
-0.50075972205320118
20
1.4037761390580994
30
0
10
-0.52126476889768458
20
1.3232634501034279
30
0
10
-0.51766679729937648
20
1.319665074782993
30
0
0
SPLINE
5
171
100
AcDbEntity
8
0
100
AcDbSpline
70
4
71
3
72
8
73
4
74
0
42
0.000000001
43
0.0000000001
44
0.0000000001
40
0
40
0
40
0
40
0
40
1
40
1
40
1
40
1
41
1
41
1
41
1
41
1
10
-0.51766679729937648
20
1.319665074782993
30
0
10
-0.50869730279762715
20
1.3106955802812437
30
0
10
-0.4597758703025101
20
1.3061448244625584
30
0
10
-0.46512034382342415
20
1.3147703477118666
30
0
0
SPLINE
5
172
100
AcDbEntity
8
0
100
AcDbSpline
70
4
71
3
72
8
73
4
74
0
42
0.000000001
43
0.0000000001
44
0.0000000001
40
0
40
0
40
0
40
0
40
1
40
1
40
1
40
1
41
1
41
1
41
1
41
1
10
-0.46512034382342415
20
1.3147703477118666
30
0
10
-0.48417037612119462
20
1.3455941284074646
30
0
10
-0.27768952017942272
20
1.6097543609514098
30
0
10
-0.082321115790994215
20
1.8044610647732273
30
0
0
SPLINE
5
173
100
AcDbEntity
8
0
100
AcDbSpline
70
4
71
3
72
8
73
4
74
0
42
0.000000001
43
0.0000000001
44
0.0000000001
40
0
40
0
40
0
40
0
40
1
40
1
40
1
40
1
41
1
41
1
41
1
41
1
10
-0.082321115790994215
20
1.8044610647732273
30
0
10
0.26131948822816997
20
2.1468848503007756
30
0
10
0.71449797982057861
20
2.3662771435950458
30
0
10
1.1462448822863984
20
2.3991913974656933
30
0
0
SPLINE
5
174
100
AcDbEntity
8
0
100
AcDbSpline
70
4
71
3
72
8
73
4
74
0
42
0.000000001
43
0.0000000001
44
0.0000000001
40
0
40
0
40
0
40
0
40
1
40
1
40
1
40
1
41
1
41
1
41
1
41
1
10
1.1462448822863984
20
2.3991913974656933
30
0
10
1.2789334078041803
20
2.4092985809221137
30
0
10
2.1351252924807964
20
2.4207021161292266
30
0
10
3.3760740537850156
20
2.4288778929287469
30
0
0
LINE
5
175
100
AcDbEntity
8
0
100
AcDbLine
10
3.3760740537850156
20
2.4288778929287465
30
0
11
4.2333768808253698
21
2.4345134501034296
31
0
0
LINE
5
176
100
AcDbEntity
8
0
100
AcDbLine
10
4.2333768808253698
20
2.4345134501034296
30
0
11
4.2208092128642498
21
2.3859622307990267
31
0
0
SPLINE
5
177
100
AcDbEntity
8
0
100
AcDbSpline
70
4
71
3
72
8
73
4
74
0
42
0.000000001
43
0.0000000001
44
0.0000000001
40
0
40
0
40
0
40
0
40
1
40
1
40
1
40
1
41
1
41
1
41
1
41
1
10
4.2208092128642498
20
2.3859622307990258
30
0
10
4.1826033730713617
20
2.2382455528154246
30
0
10
2.8687089875745873
20
-2.7748943284775556
30
0
10
2.8648195286003846
20
-2.7877795238917811
30
0
0
SPLINE
5
178
100
AcDbEntity
8
0
100
AcDbSpline
70
4
71
3
72
8
73
4
74
0
42
0.000000001
43
0.0000000001
44
0.0000000001
40
0
40
0
40
0
40
0
40
1
40
1
40
1
40
1
41
1
41
1
41
1
41
1
10
2.8648195286003846
20
-2.7877795238917811
30
0
10
2.8593957236814598
20
-2.8058241871620959
30
0
10
0.2764009320147931
20
-2.8034693769242116
30
0
10
0.055420799593934866
20
-2.7852131632592023
30
0
0
SPLINE
5
179
100
AcDbEntity
8
0
100
AcDbSpline
70
4
71
3
72
8
73
4
74
0
42
0.000000001
43
0.0000000001
44
0.0000000001
40
0
40
0
40
0
40
0
40
1
40
1
40
1
40
1
41
1
41
1
41
1
41
1
10
1.5017920592832656
20
-1.6251210621620955
30
0
10
1.5429878651507789
20
-1.5080164126183333
30
0
10
1.7349956865517391
20
-0.71172659671562333
30
0
10
1.7245711775032775
20
-0.70127544200676073
30
0
0
SPLINE
5
180
100
AcDbEntity
8
0
100
AcDbSpline
70
4
71
3
72
8
73
4
74
0
42
0.000000001
43
0.0000000001
44
0.0000000001
40
0
40
0
40
0
40
0
40
1
40
1
40
1
40
1
41
1
41
1
41
1
41
1
10
1.7245711775032775
20
-0.70127544200676073
30
0
10
1.708272915225038
20
-0.68497717972852201
30
0
10
1.2285569607623508
20
-0.67836259639518892
30
0
10
1.1401595786619279
20
-0.69323208606498876
30
0
0
SPLINE
5
181
100
AcDbEntity
8
0
100
AcDbSpline
70
4
71
3
72
8
73
4
74
0
42
0.000000001
43
0.0000000001
44
0.0000000001
40
0
40
0
40
0
40
0
40
1
40
1
40
1
40
1
41
1
41
1
41
1
41
1
10
1.1401595786619279
20
-0.69323208606498876
30
0
10
0.87126368556500411
20
-0.73847601370272464
30
0
10
0.62779380832196197
20
-1.0279829307025412
30
0
10
0.6259152892637343
20
-1.3047370731458807
30
0
0
SPLINE
5
182
100
AcDbEntity
8
0
100
AcDbSpline
70
4
71
3
72
8
73
4
74
0
42
0.000000001
43
0.0000000001
44
0.0000000001
40
0
40
0
40
0
40
0
40
1
40
1
40
1
40
1
41
1
41
1
41
1
41
1
10
0.6259152892637343
20
-1.3047370731458807
30
0
10
0.62488377922853722
20
-1.4575604323174303
30
0
10
0.73881335610231691
20
-1.6013085217898826
30
0
10
0.88110602730593013
20
-1.6267084975665553
30
0
0
SPLINE
5
183
100
AcDbEntity
8
0
100
AcDbSpline
70
4
71
3
72
8
73
4
74
0
42
0.000000001
43
0.0000000001
44
0.0000000001
40
0
40
0
40
0
40
0
40
1
40
1
40
1
40
1
41
1
41
1
41
1
41
1
10
0.88110602730593013
20
-1.6267084975665553
30
0
10
0.95484547013124754
20
-1.6398847766345481
30
0
10
1.4970826406685607
20
-1.6385088916247825
30
0
10
1.5017920592832656
20
-1.6251210621620955
30
0
0
SPLINE
5
184
100
AcDbEntity
8
0
100
AcDbSpline
70
4
71
3
72
8
73
4
74
0
42
0.000000001
43
0.0000000001
44
0.0000000001
40
0
40
0
40
0
40
0
40
1
40
1
40
1
40
1
41
1
41
1
41
1
41
1
10
2.1120006946134664
20
0.6982382127021014
30
0
10
2.2499014746554784
20
1.2243620256954701
30
0
10
2.2491077569532485
20
1.2207636503750352
30
0
10
2.2287082834450493
20
1.2285954559221135
30
0
0
SPLINE
5
185
100
AcDbEntity
8
0
100
AcDbSpline
70
4
71
3
72
8
73
4
74
0
42
0.000000001
43
0.0000000001
44
0.0000000001
40
0
40
0
40
0
40
0
40
1
40
1
40
1
40
1
41
1
41
1
41
1
41
1
10
2.2287082834450493
20
1.2285954559221135
30
0
10
2.1814538196134658
20
1.2467193496599072
30
0
10
1.4661264391152158
20
1.2279075134172313
30
0
10
1.3848462743965877
20
1.2063967947536969
30
0
0
SPLINE
5
186
100
AcDbEntity
8
0
100
AcDbSpline
70
4
71
3
72
8
73
4
74
0
42
0.000000001
43
0.0000000001
44
0.0000000001
40
0
40
0
40
0
40
0
40
1
40
1
40
1
40
1
41
1
41
1
41
1
41
1
10
1.3848462743965877
20
1.2063967947536969
30
0
10
1.2506494430112931
20
1.1708898373816679
30
0
10
1.0680608625618708
20
1.0199978848670188
30
0
10
0.99847531670412326
20
0.88709780895454338
30
0
0
SPLINE
5
187
100
AcDbEntity
8
0
100
AcDbSpline
70
4
71
3
72
8
73
4
74
0
42
0.000000001
43
0.0000000001
44
0.0000000001
40
0
40
0
40
0
40
0
40
1
40
1
40
1
40
1
41
1
41
1
41
1
41
1
10
0.99847531670412326
20
0.88709780895454338
30
0
10
0.89721938484987551
20
0.69366081122301637
30
0
10
0.91301501307965216
20
0.50895511193814469
30
0
10
1.0416816587654842
20
0.38161105994127809
30
0
0
SPLINE
5
188
100
AcDbEntity
8
0
100
AcDbSpline
70
4
71
3
72
8
73
4
74
0
42
0.000000001
43
0.0000000001
44
0.0000000001
40
0
40
0
40
0
40
0
40
1
40
1
40
1
40
1
41
1
41
1
41
1
41
1
10
1.0416816587654842
20
0.38161105994127809
30
0
10
1.1990028861570452
20
0.22595680121325068
30
0
10
1.2990153538592746
20
0.20008063518745289
30
0
10
1.7433301261472796
20
0.20008063518745289
30
0
0
LINE
5
189
100
AcDbEntity
8
0
100
AcDbLine
10
1.7433301261472796
20
0.20008063518745292
30
0
11
1.9814288842090064
21
0.20008063518745292
31
0
0
LINE
5
190
100
AcDbEntity
8
0
100
AcDbLine
10
1.9814288842090064
20
0.20008063518745292
30
0
11
2.1120006946134664
21
0.6982382127021014
31
0
0
SPLINE
5
191
100
AcDbEntity
8
0
100
AcDbSpline
70
4
71
3
72
8
73
4
74
0
42
0.000000001
43
0.0000000001
44
0.0000000001
40
0
40
0
40
0
40
0
40
1
40
1
40
1
40
1
41
1
41
1
41
1
41
1
10
1.3793164924192518
20
-1.6375565111265322
30
0
10
1.3119534368721735
20
-1.6361541823174304
30
0
10
1.2040566797463192
20
-1.6361541823174304
30
0
10
1.1395245237557183
20
-1.6375565111265322
30
0
0
SPLINE
5
192
100
AcDbEntity
8
0
100
AcDbSpline
70
4
71
3
72
8
73
4
74
0
42
0.000000001
43
0.0000000001
44
0.0000000001
40
0
40
0
40
0
40
0
40
1
40
1
40
1
40
1
41
1
41
1
41
1
41
1
10
1.1395245237557183
20
-1.6375565111265322
30
0
10
1.0750190134255182
20
-1.6389588399356347
30
0
10
1.1301052828041802
20
-1.6400965288903058
30
0
10
1.2620000906197322
20
-1.6400965288903058
30
0
0
SPLINE
5
193
100
AcDbEntity
8
0
100
AcDbSpline
70
4
71
3
72
8
73
4
74
0
42
0.000000001
43
0.0000000001
44
0.0000000001
40
0
40
0
40
0
40
0
40
1
40
1
40
1
40
1
41
1
41
1
41
1
41
1
10
1.2620000906197322
20
-1.6400965288903058
30
0
10
1.3938686564970109
20
-1.6400700850909695
30
0
10
1.4466529023059298
20
-1.6389321942752344
30
0
10
1.3793164924192518
20
-1.6375565111265322
30
0
0
SPLINE
5
194
100
AcDbEntity
8
0
100
AcDbSpline
70
4
71
3
72
8
73
4
74
0
42
0.000000001
43
0.0000000001
44
0.0000000001
40
0
40
0
40
0
40
0
40
1
40
1
40
1
40
1
41
1
41
1
41
1
41
1
10
0.73696107898236218
20
-1.5501910427834336
30
0
10
0.73696107898236218
20
-1.5487622701749943
30
0
10
0.72486960127036704
20
-1.5366707924629992
30
0
10
0.71007924113751342
20
-1.5233358505989854
30
0
0
LINE
5
195
100
AcDbEntity
8
0
100
AcDbLine
10
0.71007924113751353
20
-1.5233358505989854
30
0
11
0.6832240489530651
21
-1.4990471199776474
31
0
0
LINE
5
196
100
AcDbEntity
8
0
100
AcDbLine
10
0.6832240489530651
20
-1.4990471199776474
30
0
11
0.70751277957440351
21
-1.5259023121620954
31
0
0
SPLINE
5
197
100
AcDbEntity
8
0
100
AcDbSpline
70
4
71
3
72
8
73
4
74
0
42
0.000000001
43
0.0000000001
44
0.0000000001
40
0
40
0
40
0
40
0
40
1
40
1
40
1
40
1
41
1
41
1
41
1
41
1
10
0.70751277957440351
20
-1.5259023121620956
30
0
10
0.73013494525433487
20
-1.5509583166863266
30
0
10
0.73696107898236218
20
-1.5565938738610092
30
0
10
0.73696107898236218
20
-1.5501910427834336
30
0
0
SPLINE
5
198
100
AcDbEntity
8
0
100
AcDbSpline
70
4
71
3
72
8
73
4
74
0
42
0.000000001
43
0.0000000001
44
0.0000000001
40
0
40
0
40
0
40
0
40
1
40
1
40
1
40
1
41
1
41
1
41
1
41
1
10
0.61927446399212771
20
-1.312991979482347
30
0
10
0.61927446399212771
20
-1.2970905760552232
30
0
10
0.61758125339032133
20
-1.2905817679192366
30
0
10
0.61551742587567293
20
-1.2985457924629991
30
0
0
SPLINE
5
199
100
AcDbEntity
8
0
100
AcDbSpline
70
4
71
3
72
8
73
4
74
0
42
0.000000001
43
0.0000000001
44
0.0000000001
40
0
40
0
40
0
40
0
40
1
40
1
40
1
40
1
41
1
41
1
41
1
41
1
10
0.61551742587567293
20
-1.2985457924629991
30
0
10
0.6134269527006242
20
-1.3064833732074244
30
0
10
0.6134269527006242
20
-1.3195272314176698
30
0
10
0.61551742587567293
20
-1.3274648121620958
30
0
0
SPLINE
5
200
100
AcDbEntity
8
0
100
AcDbSpline
70
4
71
3
72
8
73
4
74
0
42
0.000000001
43
0.0000000001
44
0.0000000001
40
0
40
0
40
0
40
0
40
1
40
1
40
1
40
1
41
1
41
1
41
1
41
1
10
0.61551742587567293
20
-1.3274648121620958
30
0
10
0.61758125339032133
20
-1.3354288367058575
30
0
10
0.61927446399212771
20
-1.3289200285698715
30
0
10
0.61927446399212771
20
-1.312991979482347
30
0
0
SPLINE
5
201
100
AcDbEntity
8
0
100
AcDbSpline
70
4
71
3
72
8
73
4
74
0
42
0.000000001
43
0.0000000001
44
0.0000000001
40
0
40
0
40
0
40
0
40
1
40
1
40
1
40
1
41
1
41
1
41
1
41
1
10
1.6361209078041805
20
-0.67870656764763004
30
0
10
1.6236325712410697
20
-0.67680140292900204
30
0
10
1.603154170056988
20
-0.67680140292900204
30
0
10
1.5906658334938779
20
-0.67870656764763004
30
0
0
SPLINE
5
202
100
AcDbEntity
8
0
100
AcDbSpline
70
4
71
3
72
8
73
4
74
0
42
0.000000001
43
0.0000000001
44
0.0000000001
40
0
40
0
40
0
40
0
40
1
40
1
40
1
40
1
41
1
41
1
41
1
41
1
10
1.5906658334938779
20
-0.67870656764763004
30
0
10
1.5781508512703668
20
-0.68058508670585771
30
0
10
1.5883900518624077
20
-0.68214587644991664
30
0
10
1.6133933706490289
20
-0.68214587644991664
30
0
0
SPLINE
5
203
100
AcDbEntity
8
0
100
AcDbSpline
70
4
71
3
72
8
73
4
74
0
42
0.000000001
43
0.0000000001
44
0.0000000001
40
0
40
0
40
0
40
0
40
1
40
1
40
1
40
1
41
1
41
1
41
1
41
1
10
1.6133933706490289
20
-0.68214587644991664
30
0
10
1.6383966894356501
20
-0.68214587644991664
30
0
10
1.648635890027691
20
-0.68058508670585771
30
0
10
1.6361209078041805
20
-0.67870656764763004
30
0
0
SPLINE
5
204
100
AcDbEntity
8
0
100
AcDbSpline
70
4
71
3
72
8
73
4
74
0
42
0.000000001
43
0.0000000001
44
0.0000000001
40
0
40
0
40
0
40
0
40
1
40
1
40
1
40
1
41
1
41
1
41
1
41
1
10
1.2722130492735002
20
-0.67867992198722971
30
0
10
1.2596455831734432
20
-0.6767751609907291
30
0
10
1.2410452973254615
20
-0.67682804858940238
30
0
10
1.2308852262703667
20
-0.67881234284497716
30
0
0
SPLINE
5
205
100
AcDbEntity
8
0
100
AcDbSpline
70
4
71
3
72
8
73
4
74
0
42
0.000000001
43
0.0000000001
44
0.0000000001
40
0
40
0
40
0
40
0
40
1
40
1
40
1
40
1
41
1
41
1
41
1
41
1
10
1.2308852262703667
20
-0.67881234284497716
30
0
10
1.220698913276999
20
-0.68077039516227844
30
0
10
1.2309910014677139
20
-0.68230494296806443
30
0
10
1.2537189423449924
20
-0.68225205536939115
30
0
0
SPLINE
5
206
100
AcDbEntity
8
0
100
AcDbSpline
70
4
71
3
72
8
73
4
74
0
42
0.000000001
43
0.0000000001
44
0.0000000001
40
0
40
0
40
0
40
0
40
1
40
1
40
1
40
1
41
1
41
1
41
1
41
1
10
1.2537189423449924
20
-0.68225205536939115
30
0
10
1.2764731251605443
20
-0.68219876404859048
30
0
10
1.2847809190956845
20
-0.68058508670585771
30
0
10
1.2722130492735002
20
-0.67867992198722971
30
0
0
SPLINE
5
207
100
AcDbEntity
8
0
100
AcDbSpline
70
4
71
3
72
8
73
4
74
0
42
0.000000001
43
0.0000000001
44
0.0000000001
40
0
40
0
40
0
40
0
40
1
40
1
40
1
40
1
41
1
41
1
41
1
41
1
10
1.8924493348010474
20
0.19799056573453155
30
0
10
1.8390033884255186
20
0.19941933834297043
30
0
10
1.7515854362058731
20
0.19941933834297043
30
0
10
1.6981394898303441
20
0.19799056573453155
30
0
0
SPLINE
5
208
100
AcDbEntity
8
0
100
AcDbSpline
70
4
71
3
72
8
73
4
74
0
42
0.000000001
43
0.0000000001
44
0.0000000001
40
0
40
0
40
0
40
0
40
1
40
1
40
1
40
1
41
1
41
1
41
1
41
1
10
1.6981394898303441
20
0.19799056573453155
30
0
10
1.6447201891152159
20
0.19653514746569178
30
0
10
1.6884291652250383
20
0.19537121657274781
30
0
10
1.7952944123156955
20
0.19537121657274781
30
0
0
SPLINE
5
209
100
AcDbEntity
8
0
100
AcDbSpline
70
4
71
3
72
8
73
4
74
0
42
0.000000001
43
0.0000000001
44
0.0000000001
40
0
40
0
40
0
40
0
40
1
40
1
40
1
40
1
41
1
41
1
41
1
41
1
10
1.7952944123156955
20
0.19537121657274781
30
0
10
1.9021596594063532
20
0.19537121657274781
30
0
10
1.9458686355161758
20
0.19653514746569178
30
0
10
1.8924493348010474
20
0.19799056573453155
30
0
0
SPLINE
5
210
100
AcDbEntity
8
0
100
AcDbSpline
70
4
71
3
72
8
73
4
74
0
42
0.000000001
43
0.0000000001
44
0.0000000001
40
0
40
0
40
0
40
0
40
1
40
1
40
1
40
1
41
1
41
1
41
1
41
1
10
1.5699750744708467
20
1.2310294966274771
30
0
10
1.5620378974485489
20
1.2331199698025253
30
0
10
1.548993635516176
20
1.2331199698025253
30
0
10
1.5410564584938773
20
1.2310294966274771
30
0
0
SPLINE
5
211
100
AcDbEntity
8
0
100
AcDbSpline
70
4
71
3
72
8
73
4
74
0
42
0.000000001
43
0.0000000001
44
0.0000000001
40
0
40
0
40
0
40
0
40
1
40
1
40
1
40
1
41
1
41
1
41
1
41
1
10
1.5410564584938773
20
1.2310294966274771
30
0
10
1.5330922320890517
20
1.2289656691128281
30
0
10
1.5396010402250382
20
1.2272724585110217
30
0
10
1.5555024436521618
20
1.2272724585110217
30
0
0
SPLINE
5
212
100
AcDbEntity
8
0
100
AcDbSpline
70
4
71
3
72
8
73
4
74
0
42
0.000000001
43
0.0000000001
44
0.0000000001
40
0
40
0
40
0
40
0
40
1
40
1
40
1
40
1
41
1
41
1
41
1
41
1
10
1.5555024436521618
20
1.2272724585110217
30
0
10
1.5714304927396867
20
1.2272724585110217
30
0
10
1.577939300875673
20
1.2289656691128281
30
0
10
1.5699750744708467
20
1.2310294966274771
30
0
0
SPLINE
5
213
100
AcDbEntity
8
0
100
AcDbSpline
70
4
71
3
72
8
73
4
74
0
42
0.000000001
43
0.0000000001
44
0.0000000001
40
0
40
0
40
0
40
0
40
1
40
1
40
1
40
1
41
1
41
1
41
1
41
1
10
1.9004664488045471
20
1.239707907475458
30
0
10
1.8787175340859186
20
1.2414011180772655
30
0
10
1.8452477585681371
20
1.241374876138992
30
0
10
1.8260390634743469
20
1.2396550198767853
30
0
0
SPLINE
5
214
100
AcDbEntity
8
0
100
AcDbSpline
70
4
71
3
72
8
73
4
74
0
42
0.000000001
43
0.0000000001
44
0.0000000001
40
0
40
0
40
0
40
0
40
1
40
1
40
1
40
1
41
1
41
1
41
1
41
1
10
1.8260390634743469
20
1.2396550198767853
30
0
10
1.8068566103188288
20
1.2379089216763051
30
0
10
1.8246365328041803
20
1.2365063910061391
30
0
10
1.8655679006783261
20
1.2365330366665395
30
0
0
SPLINE
5
215
100
AcDbEntity
8
0
100
AcDbSpline
70
4
71
3
72
8
73
4
74
0
42
0.000000001
43
0.0000000001
44
0.0000000001
40
0
40
0
40
0
40
0
40
1
40
1
40
1
40
1
41
1
41
1
41
1
41
1
10
1.8655679006783261
20
1.2365330366665395
30
0
10
1.9064988648303443
20
1.2365592786048119
30
0
10
1.9222149598010474
20
1.2379880512132513
30
0
10
1.9004664488045471
20
1.239707907475458
30
0
0
LINE
5
216
100
AcDbEntity
8
0
100
AcDbLine
10
0.81601875339032126
20
-0.87272532896456534
30
0
11
0.84030748401165922
21
-0.84584369298078022
31
0
0
LINE
5
217
100
AcDbEntity
8
0
100
AcDbLine
10
0.84030748401165922
20
-0.84584369298078022
30
0
11
0.8134522918272109
21
-0.87013242360211851
31
0
0
SPLINE
5
218
100
AcDbEntity
8
0
100
AcDbSpline
70
4
71
3
72
8
73
4
74
0
42
0.000000001
43
0.0000000001
44
0.0000000001
40
0
40
0
40
0
40
0
40
1
40
1
40
1
40
1
41
1
41
1
41
1
41
1
10
0.81345229182721079
20
-0.87013242360211851
30
0
10
0.79866193169435773
20
-0.88349401112653214
30
0
10
0.78657045398236203
20
-0.89558548883852784
30
0
10
0.78657045398236203
20
-0.8970140595859033
30
0
0
SPLINE
5
219
100
AcDbEntity
8
0
100
AcDbSpline
70
4
71
3
72
8
73
4
74
0
42
0.000000001
43
0.0000000001
44
0.0000000001
40
0
40
0
40
0
40
0
40
1
40
1
40
1
40
1
41
1
41
1
41
1
41
1
10
0.78657045398236203
20
-0.8970140595859033
30
0
10
0.78657045398236203
20
-0.9033906487252058
30
0
10
0.79339658771038934
20
-0.89778153534985972
30
0
10
0.81601875339032126
20
-0.87272532896456534
30
0
0
SPLINE
5
220
100
AcDbEntity
8
0
100
AcDbSpline
70
4
71
3
72
8
73
4
74
0
42
0.000000001
43
0.0000000001
44
0.0000000001
40
0
40
0
40
0
40
0
40
1
40
1
40
1
40
1
41
1
41
1
41
1
41
1
10
1.5038292411375136
20
-0.67846837159253548
30
0
10
1.4640359659401669
20
-0.67696006572502243
30
0
10
1.398948692024558
20
-0.67696006572502243
30
0
10
1.3591554168272109
20
-0.67846837159253548
30
0
0
SPLINE
5
221
100
AcDbEntity
8
0
100
AcDbSpline
70
4
71
3
72
8
73
4
74
0
42
0.000000001
43
0.0000000001
44
0.0000000001
40
0
40
0
40
0
40
0
40
1
40
1
40
1
40
1
41
1
41
1
41
1
41
1
10
1.3591554168272109
20
-0.67846837159253548
30
0
10
1.3193617379077365
20
-0.67997627373792169
30
0
10
1.351905778587668
20
-0.68122014161206668
30
0
10
1.4314923289823622
20
-0.68122014161206668
30
0
0
SPLINE
5
222
100
AcDbEntity
8
0
100
AcDbSpline
70
4
71
3
72
8
73
4
74
0
42
0.000000001
43
0.0000000001
44
0.0000000001
40
0
40
0
40
0
40
0
40
1
40
1
40
1
40
1
41
1
41
1
41
1
41
1
10
1.4314923289823622
20
-0.68122014161206668
30
0
10
1.5110788793770564
20
-0.68122014161206668
30
0
10
1.543622920056988
20
-0.67997627373792169
30
0
10
1.5038292411375136
20
-0.67846837159253548
30
0
0
SPLINE
5
223
100
AcDbEntity
8
0
100
AcDbSpline
70
4
71
3
72
8
73
4
74
0
42
0.000000001
43
0.0000000001
44
0.0000000001
40
0
40
0
40
0
40
0
40
1
40
1
40
1
40
1
41
1
41
1
41
1
41
1
10
1.0349613002348035
20
0.38404550436876794
30
0
10
1.0146940457232883
20
0.40566199822964888
30
0
10
0.99701989843528405
20
0.4233361455176532
30
0
10
0.99569730474631912
20
0.4233361455176532
30
0
0
SPLINE
5
224
100
AcDbEntity
8
0
100
AcDbSpline
70
4
71
3
72
8
73
4
74
0
42
0.000000001
43
0.0000000001
44
0.0000000001
40
0
40
0
40
0
40
0
40
1
40
1
40
1
40
1
41
1
41
1
41
1
41
1
10
0.99569730474631912
20
0.4233361455176532
30
0
10
0.98947958026410043
20
0.4233361455176532
30
0
10
0.99604127599876024
20
0.41590119882168985
30
0
10
1.0325535014677141
20
0.38163770560167842
30
0
0
LINE
5
225
100
AcDbEntity
8
0
100
AcDbLine
10
1.0325535014677141
20
0.38163770560167842
30
0
11
1.0718179006783259
21
0.34478110515815624
31
0
0
LINE
5
226
100
AcDbEntity
8
0
100
AcDbLine
10
1.0718179006783259
20
0.34478110515815624
30
0
11
1.0349613002348035
21
0.38404550436876794
31
0
0
SPLINE
5
227
100
AcDbEntity
8
0
100
AcDbSpline
70
4
71
3
72
8
73
4
74
0
42
0.000000001
43
0.0000000001
44
0.0000000001
40
0
40
0
40
0
40
0
40
1
40
1
40
1
40
1
41
1
41
1
41
1
41
1
10
1.6236325712410697
20
1.2311881594234975
30
0
10
1.6133404830503557
20
1.2331728574011991
30
0
10
1.5984709933805559
20
1.2330933241421249
30
0
10
1.5905596545744034
20
1.2310294966274771
30
0
0
SPLINE
5
228
100
AcDbEntity
8
0
100
AcDbSpline
70
4
71
3
72
8
73
4
74
0
42
0.000000001
43
0.0000000001
44
0.0000000001
40
0
40
0
40
0
40
0
40
1
40
1
40
1
40
1
41
1
41
1
41
1
41
1
10
1.5905596545744034
20
1.2310294966274771
30
0
10
1.5826487194903782
20
1.2289394271745546
30
0
10
1.5910626923449929
20
1.2273253461096956
30
0
10
1.6092657156197321
20
1.2274311213070421
30
0
0
SPLINE
5
229
100
AcDbEntity
8
0
100
AcDbSpline
70
4
71
3
72
8
73
4
74
0
42
0.000000001
43
0.0000000001
44
0.0000000001
40
0
40
0
40
0
40
0
40
1
40
1
40
1
40
1
41
1
41
1
41
1
41
1
10
1.6092657156197321
20
1.2274311213070421
30
0
10
1.627442900678326
20
1.2275106545661163
30
0
10
1.6339250631539119
20
1.2292038651679227
30
0
10
1.6236325712410697
20
1.2311881594234975
30
0
0
SPLINE
5
230
100
AcDbEntity
8
0
100
AcDbSpline
70
4
71
3
72
8
73
4
74
0
42
0.000000001
43
0.0000000001
44
0.0000000001
40
0
40
0
40
0
40
0
40
1
40
1
40
1
40
1
41
1
41
1
41
1
41
1
10
2.1077937081861586
20
1.2397345531358583
30
0
10
2.0772872530826025
20
1.2413219885403182
30
0
10
2.0251907479175024
20
1.2413219885403182
30
0
10
1.9920387017138892
20
1.2397607950741318
30
0
0
SPLINE
5
231
100
AcDbEntity
8
0
100
AcDbSpline
70
4
71
3
72
8
73
4
74
0
42
0.000000001
43
0.0000000001
44
0.0000000001
40
0
40
0
40
0
40
0
40
1
40
1
40
1
40
1
41
1
41
1
41
1
41
1
10
1.9920387017138892
20
1.2397607950741318
30
0
10
1.9588600098498754
20
1.238173359669672
30
0
10
1.9838100373156959
20
1.2368770079189806
30
0
10
2.0474687404839291
20
1.2368770079189806
30
0
0
SPLINE
5
232
100
AcDbEntity
8
0
100
AcDbSpline
70
4
71
3
72
8
73
4
74
0
42
0.000000001
43
0.0000000001
44
0.0000000001
40
0
40
0
40
0
40
0
40
1
40
1
40
1
40
1
41
1
41
1
41
1
41
1
10
2.0474687404839291
20
1.2368770079189806
30
0
10
2.1111274436521619
20
1.2368503622585802
30
0
10
2.1382737194903783
20
1.2381467140092717
30
0
10
2.1077937081861586
20
1.2397345531358583
30
0
0
SPLINE
5
233
100
AcDbEntity
8
0
100
AcDbSpline
70
4
71
3
72
8
73
4
74
0
42
0.000000001
43
0.0000000001
44
0.0000000001
40
0.3707630486407012
40
0.3707630486407012
40
0.3707630486407012
40
0.3707630486407012
40
0.37086975565336955
40
0.37086975565336955
40
0.37086975565336955
40
0.37086975565336955
41
1
41
1
41
1
41
1
10
-2.0952660542328378
20
-0.28077077724104543
30
0
10
-2.0952476961893933
20
-0.2808823872349191
30
0
10
-2.0952293245638782
20
-0.28099399458737861
30
0
10
-2.0952109393575267
20
-0.28110559929589185
30
0
0
SPLINE
5
234
100
AcDbEntity
8
0
100
AcDbSpline
70
4
71
3
72
8
73
4
74
0
42
0.000000001
43
0.0000000001
44
0.0000000001
40
0.56240085134861528
40
0.56240085134861528
40
0.56240085134861528
40
0.56240085134861528
40
0.56240681064653242
40
0.56240681064653242
40
0.56240681064653242
40
0.56240681064653242
41
1
41
1
41
1
41
1
10
-0.63423376089807393
20
1.3221360023350965
30
0
10
-0.63423918892562225
20
1.3221362961039005
30
0
10
-0.6342446169552125
20
1.3221365898421684
30
0
10
-0.63425004498684434
20
1.3221368835498999
30
0
0
SPLINE
5
235
100
AcDbEntity
8
0
100
AcDbSpline
70
4
71
3
72
8
73
4
74
0
42
0.000000001
43
0.0000000001
44
0.0000000001
40
0
40
0
40
0
40
0
40
0.00029703632607915313
40
0.00029703632607915313
40
0.00029703632607915313
40
0.00029703632607915313
41
1
41
1
41
1
41
1
10
-0.6066197010469343
20
-1.4604179775343085
30
0
10
-0.60633838495347037
20
-1.4604022121734794
30
0
10
-0.60605709768329974
20
-1.4603863635457424
30
0
10
-0.60577583925375778
20
-1.460370431678951
30
0
0
SPLINE
5
236
100
AcDbEntity
8
0
100
AcDbSpline
70
4
71
3
72
8
73
4
74
0
42
0.000000001
43
0.0000000001
44
0.0000000001
40
0.6355370167442802
40
0.6355370167442802
40
0.6355370167442802
40
0.6355370167442802
40
0.63554344049535283
40
0.63554344049535283
40
0.63554344049535283
40
0.63554344049535283
41
1
41
1
41
1
41
1
10
-0.60579149636691021
20
-1.4603713772874318
30
0
10
-0.60579281935926943
20
-1.4603714356928683
30
0
10
-0.60579414235518059
20
-1.4603714940968346
30
0
10
-0.60579546535464357
20
-1.460371552499331
30
0
0
SPLINE
5
237
100
AcDbEntity
8
0
100
AcDbSpline
70
4
71
3
72
8
73
4
74
0
42
0.000000001
43
0.0000000001
44
0.0000000001
40
0.096754166506112599
40
0.096754166506112599
40
0.096754166506112599
40
0.096754166506112599
40
0.096756510890621233
40
0.096756510890621233
40
0.096756510890621233
40
0.096756510890621233
41
1
41
1
41
1
41
1
10
-0.3414926118004189
20
-1.4194706255804057
30
0
10
-0.3414905542076021
20
-1.4194700963398699
30
0
10
-0.34148849661693248
20
-1.4194695670947124
30
0
10
-0.34148643902841014
20
-1.4194690378449333
30
0
0
SPLINE
5
238
100
AcDbEntity
8
0
100
AcDbSpline
70
4
71
3
72
8
73
4
74
0
42
0.000000001
43
0.0000000001
44
0.0000000001
40
0.35278130099177951
40
0.35278130099177951
40
0.35278130099177951
40
0.35278130099177951
40
0.35283438738403367
40
0.35283438738403367
40
0.35283438738403367
40
0.35283438738403367
41
1
41
1
41
1
41
1
10
-2.0952408714885591
20
-0.28095754789381072
30
0
10
-2.0952493040388571
20
-0.28089506559474486
30
0
10
-2.0952577323253383
20
-0.28083258283612655
30
0
10
-2.0952661563481181
20
-0.28077009961844568
30
0
0
LINE
5
239
100
AcDbEntity
8
0
100
AcDbLine
10
-0.4848925318822348
20
1.3105195413143074
30
0
11
-0.50399283523158389
21
1.3136590549686038
31
0
0
CIRCLE
5
240
100
AcDbEntity
8
0
100
AcDbCircle
10
-0.72618871429760767
20
-0.071046520573378388
30
0
40
1.4024794583194722
210
0
220
0
230
1
0
SPLINE
5
241
100
AcDbEntity
8
0
100
AcDbSpline
70
4
71
3
72
8
73
4
74
0
42
0.000000001
43
0.0000000001
44
0.0000000001
40
0.085390841190811875
40
0.085390841190811875
40
0.085390841190811875
40
0.085390841190811875
40
1
40
1
40
1
40
1
41
1
41
1
41
1
41
1
10
-1.243495298218261
20
-1.374634848704781
30
0
10
-1.2382419810842213
20
-1.3871414653024969
30
0
10
-1.2416852491580905
20
-1.4091738373188487
30
0
10
-1.2571242456229437
20
-1.4676145263141138
30
0
0
SPLINE
5
242
100
AcDbEntity
8
0
100
AcDbSpline
70
4
71
3
72
8
73
4
74
0
42
0.000000001
43
0.0000000001
44
0.0000000001
40
0
40
0
40
0
40
0
40
0.013720133965479591
40
0.013720133965479591
40
0.013720133965479591
40
0.013720133965479591
41
1
41
1
41
1
41
1
10
-3.1470428018363226
20
-2.787038693788225
30
0
10
-3.1472453675158345
20
-2.7870136472648093
30
0
10
-3.1474497110806601
20
-2.78698894438305
30
0
10
-3.1476557837451491
20
-2.7869645851429468
30
0
0
SPLINE
5
243
100
AcDbEntity
8
0
100
AcDbSpline
70
4
71
3
72
8
73
4
74
0
42
0.000000001
43
0.0000000001
44
0.0000000001
40
0.1560569208445437
40
0.1560569208445437
40
0.1560569208445437
40
0.1560569208445437
40
0.15607094952873962
40
0.15607094952873962
40
0.15607094952873962
40
0.15607094952873962
41
1
41
1
41
1
41
1
10
-3.1956674004089258
20
-2.7865075331763238
30
0
10
-3.1956619603110652
20
-2.7865075916240389
30
0
10
-3.1956565200139231
20
-2.786507650071119
30
0
10
-3.195651079517507
20
-2.7865077085175645
30
0
0
SPLINE
5
244
100
AcDbEntity
8
0
100
AcDbSpline
70
4
71
3
72
8
73
4
74
0
42
0.000000001
43
0.0000000001
44
0.0000000001
40
0.89121273582581295
40
0.89121273582581295
40
0.89121273582581295
40
0.89121273582581295
40
0.8912265910388939
40
0.8912265910388939
40
0.8912265910388939
40
0.8912265910388939
41
1
41
1
41
1
41
1
10
-3.1956503832750771
20
-2.7865077240203098
30
0
10
-3.195650613209124
20
-2.7865077438102865
30
0
10
-3.1956508431417525
20
-2.7865077636006141
30
0
10
-3.1956510730729621
20
-2.7865077833912921
30
0
0
SPLINE
5
245
100
AcDbEntity
8
0
100
AcDbSpline
70
4
71
3
72
8
73
4
74
0
42
0.000000001
43
0.0000000001
44
0.0000000001
40
0.049265244140377022
40
0.049265244140377022
40
0.049265244140377022
40
0.049265244140377022
40
0.049275628274346894
40
0.049275628274346894
40
0.049275628274346894
40
0.049275628274346894
41
1
41
1
41
1
41
1
10
-3.2819246623157605
20
-2.7850683963309386
30
0
10
-3.2819232055943974
20
-2.7850684461661421
30
0
10
-3.2819217487323145
20
-2.7850684960010548
30
0
10
-3.2819202917295147
20
-2.7850685458356761
30
0
0
SPLINE
5
246
100
AcDbEntity
8
0
100
AcDbSpline
70
4
71
3
72
8
73
4
74
0
42
0.000000001
43
0.0000000001
44
0.0000000001
40
0.94696870523692489
40
0.94696870523692489
40
0.94696870523692489
40
0.94696870523692489
40
0.94701040280707316
40
0.94701040280707316
40
0.94701040280707316
40
0.94701040280707316
41
1
41
1
41
1
41
1
10
-3.2930640098496688
20
-2.7833462193152925
30
0
10
-3.2930639895771585
20
-2.7833466342822479
30
0
10
-3.293063969272449
20
-2.7833470491295005
30
0
10
-3.2930639489355391
20
-2.7833474638570466
30
0
0
SPLINE
5
247
100
AcDbEntity
8
0
100
AcDbSpline
70
4
71
3
72
8
73
4
74
0
42
0.000000001
43
0.0000000001
44
0.0000000001
40
0.94620973771002592
40
0.94620973771002592
40
0.94620973771002592
40
0.94620973771002592
40
0.94828558845969546
40
0.94828558845969546
40
0.94828558845969546
40
0.94828558845969546
41
1
41
1
41
1
41
1
10
-4.1711927354577831
20
1.0817576278733296
30
0
10
-4.1695636559940672
20
1.0811918076590668
30
0
10
-4.1679313309755415
20
1.0806248771303371
30
0
10
-4.1662957540853736
20
1.0800568338963479
30
0
0
SPLINE
5
248
100
AcDbEntity
8
0
100
AcDbSpline
70
4
71
3
72
8
73
4
74
0
42
0.000000001
43
0.0000000001
44
0.0000000001
40
0.18868607973399401
40
0.18868607973399401
40
0.18868607973399401
40
0.18868607973399401
40
0.18873357649216427
40
0.18873357649216427
40
0.18873357649216427
40
0.18873357649216427
41
1
41
1
41
1
41
1
10
-3.4082909215602362
20
0.90297907968939162
30
0
10
-3.4082647505166359
20
0.90297270937642393
30
0
10
-3.4082385810374611
20
0.90296633942069104
30
0
10
-3.4082124131226226
20
0.90295996982216864
30
0
0
SPLINE
5
249
100
AcDbEntity
8
0
100
AcDbSpline
70
4
71
3
72
8
73
4
74
0
42
0.000000001
43
0.0000000001
44
0.0000000001
40
0.47223358642855606
40
0.47223358642855606
40
0.47223358642855606
40
0.47223358642855606
40
0.47231636980369995
40
0.47231636980369995
40
0.47231636980369995
40
0.47231636980369995
41
1
41
1
41
1
41
1
10
-3.8678204658698547
20
0.90652524854207206
30
0
10
-3.8678194185445292
20
0.90652534131780527
30
0
10
-3.8678183713925698
20
0.90652543409982811
30
0
10
-3.8678173244139824
20
0.90652552688814003
30
0
0
SPLINE
5
250
100
AcDbEntity
8
0
100
AcDbSpline
70
4
71
3
72
8
73
4
74
0
42
0.000000001
43
0.0000000001
44
0.0000000001
40
0.22212065076219004
40
0.22212065076219004
40
0.22212065076219004
40
0.22212065076219004
40
0.22216080409944133
40
0.22216080409944133
40
0.22216080409944133
40
0.22216080409944133
41
1
41
1
41
1
41
1
10
-3.9394124847341723
20
0.90777757265620229
30
0
10
-3.9394126383219303
20
0.90777750939945023
30
0
10
-3.9394127918635782
20
0.90777744614361677
30
0
10
-3.9394129453591153
20
0.90777738288870213
30
0
0
SPLINE
5
251
100
AcDbEntity
8
0
100
AcDbSpline
70
4
71
3
72
8
73
4
74
0
42
0.000000001
43
0.0000000001
44
0.0000000001
40
0.42611446238346362
40
0.42611446238346362
40
0.42611446238346362
40
0.42611446238346362
40
0.42611713033653681
40
0.42611713033653681
40
0.42611713033653681
40
0.42611713033653681
41
1
41
1
41
1
41
1
10
-4.0961665044204478
20
0.91660786109316716
30
0
10
-4.0961659526178842
20
0.91660783103316068
30
0
10
-4.0961654008124482
20
0.9166078009732328
30
0
10
-4.0961648490041389
20
0.91660777091338363
30
0
0
SPLINE
5
252
100
AcDbEntity
8
0
100
AcDbSpline
70
4
71
3
72
8
73
4
74
0
42
0.000000001
43
0.0000000001
44
0.0000000001
40
0.68162980186106037
40
0.68162980186106037
40
0.68162980186106037
40
0.68162980186106037
40
0.68269764611693406
40
0.68269764611693406
40
0.68269764611693406
40
0.68269764611693406
41
1
41
1
41
1
41
1
10
-4.1217552338977477
20
0.91820201054713868
30
0
10
-4.1217671643892615
20
0.91820116455305312
30
0
10
-4.1217790911342833
20
0.91820031626727416
30
0
10
-4.1217910141187684
20
0.91819946568989896
30
0
0
SPLINE
5
253
100
AcDbEntity
8
0
100
AcDbSpline
70
4
71
3
72
8
73
4
74
0
42
0.000000001
43
0.0000000001
44
0.0000000001
40
0.77537917135810452
40
0.77537917135810452
40
0.77537917135810452
40
0.77537917135810452
40
0.77538167570496741
40
0.77538167570496741
40
0.77538167570496741
40
0.77538167570496741
41
1
41
1
41
1
41
1
10
-0.58908853790325022
20
2.4229247340439706
30
0
10
-0.58908861957407954
20
2.4229247317947928
30
0
10
-0.58908870124484081
20
2.4229247295456049
30
0
10
-0.5890887829155339
20
2.4229247272964072
30
0
0
SPLINE
5
254
100
AcDbEntity
8
0
100
AcDbSpline
70
4
71
3
72
8
73
4
74
0
42
0.000000001
43
0.0000000001
44
0.0000000001
40
0.43106874495445419
40
0.43106874495445419
40
0.43106874495445419
40
0.43106874495445419
40
0.431216457909044
40
0.431216457909044
40
0.431216457909044
40
0.431216457909044
41
1
41
1
41
1
41
1
10
-0.36629639022973975
20
2.4195366036951138
30
0
10
-0.36629418011071696
20
2.4195367583270033
30
0
10
-0.36629197058450458
20
2.4195369129793654
30
0
10
-0.36628976165113725
20
2.4195370676521968
30
0
0
SPLINE
5
255
100
AcDbEntity
8
0
100
AcDbSpline
70
4
71
3
72
8
73
4
74
0
42
0.000000001
43
0.0000000001
44
0.0000000001
40
0.87756408014469167
40
0.87756408014469167
40
0.87756408014469167
40
0.87756408014469167
40
0.87758833214144982
40
0.87758833214144982
40
0.87758833214144982
40
0.87758833214144982
41
1
41
1
41
1
41
1
10
-0.13870758226348029
20
1.7467095254944636
30
0
10
-0.13870753076741318
20
1.7467094607980425
30
0
10
-0.13870747926062194
20
1.7467093961093318
30
0
10
-0.13870742774310701
20
1.7467093314283315
30
0
0
SPLINE
5
256
100
AcDbEntity
8
0
100
AcDbSpline
70
4
71
3
72
8
73
4
74
0
42
0.000000001
43
0.0000000001
44
0.0000000001
40
0.57093215198855818
40
0.57093215198855818
40
0.57093215198855818
40
0.57093215198855818
40
1
40
1
40
1
40
1
41
1
41
1
41
1
41
1
10
2.7430654384210058
20
2.4204429275042476
30
0
10
2.7508510902917171
20
2.4209081060524058
30
0
10
2.7462328572437582
20
2.4214951559811153
30
0
10
2.7271040570147926
20
2.4221308887376658
30
0
0
SPLINE
5
257
100
AcDbEntity
8
0
100
AcDbSpline
70
4
71
3
72
8
73
4
74
0
42
0.000000001
43
0.0000000001
44
0.0000000001
40
0.26071941523376374
40
0.26071941523376374
40
0.26071941523376374
40
0.26071941523376374
40
0.26089282064365804
40
0.26089282064365804
40
0.26089282064365804
40
0.26089282064365804
41
1
41
1
41
1
41
1
10
3.4406216439703998
20
2.4293022023067197
30
0
10
3.4406210988926595
20
2.4293019823011712
30
0
10
3.4406205560602006
20
2.4293017623114279
30
0
10
3.4406200154728674
20
2.4293015423374928
30
0
0
SPLINE
5
258
100
AcDbEntity
8
0
100
AcDbSpline
70
4
71
3
72
8
73
4
74
0
42
0.000000001
43
0.0000000001
44
0.0000000001
40
0.018117618092496526
40
0.018117618092496526
40
0.018117618092496526
40
0.018117618092496526
40
0.018226000483620393
40
0.018226000483620393
40
0.018226000483620393
40
0.018226000483620393
41
1
41
1
41
1
41
1
10
3.6216266258557743
20
2.430491488217247
30
0
10
3.6216214411839753
20
2.4304916428815071
30
0
10
3.6216162562009457
20
2.4304917975280609
30
0
10
3.6216110709067588
20
2.4304919521569088
30
0
0
SPLINE
5
259
100
AcDbEntity
8
0
100
AcDbSpline
70
4
71
3
72
8
73
4
74
0
42
0.000000001
43
0.0000000001
44
0.0000000001
40
0
40
0
40
0
40
0
40
0.86565920033735788
40
0.86565920033735788
40
0.86565920033735788
40
0.86565920033735788
41
1
41
1
41
1
41
1
10
-0.90824453955808293
20
-2.1230404436216501
30
0
10
-0.76303389949141187
20
-2.4090414276872303
30
0
10
-0.48531933312628861
20
-2.644126733266019
30
0
10
-0.19605179569959633
20
-2.7361976005778077
30
0
0
SPLINE
5
260
100
AcDbEntity
8
0
100
AcDbSpline
70
4
71
3
72
8
73
4
74
0
42
0.000000001
43
0.0000000001
44
0.0000000001
40
0
40
0
40
0
40
0
40
0.13990772960296777
40
0.13990772960296777
40
0.13990772960296777
40
0.13990772960296777
41
1
41
1
41
1
41
1
10
0.055420799593934866
20
-2.7852131632592023
30
0
10
-0.03145129940555786
20
-2.7780429202477848
30
0
10
-0.11561322687890702
20
-2.7613272626703962
30
0
10
-0.19605187139527816
20
-2.7361978428777922
30
0
0
SPLINE
5
261
100
AcDbEntity
8
0
100
AcDbSpline
70
4
71
3
72
8
73
4
74
0
42
0.000000001
43
0.0000000001
44
0.0000000001
40
0.6904491290792476
40
0.6904491290792476
40
0.6904491290792476
40
0.6904491290792476
40
1
40
1
40
1
40
1
41
1
41
1
41
1
41
1
10
-0.91094771433647348
20
-2.1176482424100511
30
0
10
-0.98937916435039475
20
-1.9543117138871628
30
0
10
-1.0300681816782573
20
-1.7715864387758731
30
0
10
-1.0220416955741152
20
-1.5817294116443144
30
0
0
SPLINE
5
262
100
AcDbEntity
8
0
100
AcDbSpline
70
4
71
3
72
8
73
4
74
0
42
0.000000001
43
0.0000000001
44
0.0000000001
40
0.98854109708024096
40
0.98854109708024096
40
0.98854109708024096
40
0.98854109708024096
40
1
40
1
40
1
40
1
41
1
41
1
41
1
41
1
10
-0.91094462712996571
20
-2.1176467183053389
30
0
10
-0.9100480978885177
20
-2.1194627154689409
30
0
10
-0.90914804353658452
20
-2.1212607652060549
30
0
10
-0.90824453955808304
20
-2.1230404436216501
30
0
0
SPLINE
5
263
100
AcDbEntity
8
0
100
AcDbSpline
70
0
71
3
72
11
73
7
74
0
42
0.000000001
43
0.0000000001
44
0.0000000001
40
2.3102471864603738e-07
40
2.3102471864603738e-07
40
2.3102471864603738e-07
40
2.3102471864603738e-07
40
0.89760082625261461
40
0.89760082625261461
40
0.89760082625261461
40
1
40
1
40
1
40
1
10
5.5548829220443787
20
0.71041786180748079
30
0
10
5.0712676913212071
20
3.1407446667173526
30
0
10
2.3255729350270964
20
4.704878118972049
30
0
10
-0.5330092520215588
20
4.4241148291657675
30
0
10
-0.85911916727674753
20
4.3920850722253082
30
0
10
-1.1870450248083064
20
4.3359689313606733
30
0
10
-1.5136551352986016
20
4.2542061245187393
30
0
0
SPLINE
5
264
100
AcDbEntity
8
0
100
AcDbSpline
70
0
71
3
72
8
73
4
74
0
42
0.000000001
43
0.0000000001
44
0.0000000001
40
3.5838341913116942e-08
40
3.5838341913116942e-08
40
3.5838341913116942e-08
40
3.5838341913116942e-08
40
1
40
1
40
1
40
1
10
-1.51365513529865
20
4.2542061245189453
30
0
10
-4.1741848900042555
20
3.5881794034637986
30
0
10
-5.818330445935274
20
1.3836994750251881
30
0
10
-5.260763398909889
20
-0.8691022008658873
30
0
0
SPLINE
5
265
100
AcDbEntity
8
0
100
AcDbSpline
70
0
71
3
72
11
73
7
74
0
42
0.000000001
43
0.0000000001
44
0.0000000001
40
0
40
0
40
0
40
0
40
1
40
1
40
1
40
1.0000061425003386
40
1.0000061425003386
40
1.0000061425003386
40
1.0000061425003386
10
-5.2607633746177935
20
-0.86910229901590186
30
0
10
-4.7887700635335548
20
-2.7761465242338845
30
0
10
-2.8553849809723486
20
-4.1692949712963152
30
0
10
-0.46415831306610061
20
-4.394455667897307
30
0
10
-0.46414403403211651
20
-4.3944570124278286
30
0
10
-0.464129754996574
20
-4.3944583569584967
30
0
10
-0.46411547595585589
20
-4.3944597014896525
30
0
0
SPLINE
5
266
100
AcDbEntity
8
0
100
AcDbSpline
70
0
71
3
72
8
73
4
74
0
42
0.000000001
43
0.0000000001
44
0.0000000001
40
3.3728688914341135e-05
40
3.3728688914341135e-05
40
3.3728688914341135e-05
40
3.3728688914341135e-05
40
1
40
1
40
1
40
1
10
-0.46411547634824479
20
-4.3944596976578856
30
0
10
-0.25849558864152644
20
-4.4137947268912665
30
0
10
0.35346616326854041
20
-4.420550166018657
30
0
10
0.56079554368129259
20
-4.4059836067598424
30
0
0
SPLINE
5
267
100
AcDbEntity
8
0
100
AcDbSpline
70
0
71
3
72
8
73
4
74
0
42
0.000000001
43
0.0000000001
44
0.0000000001
40
3.2679864003229445e-06
40
3.2679864003229445e-06
40
3.2679864003229445e-06
40
3.2679864003229445e-06
40
1
40
1
40
1
40
1
10
0.560795543786762
20
-4.4059836082717307
30
0
10
3.1014575700421618
20
-4.2277915394216539
30
0
10
5.1458689082607458
20
-2.729460145244746
30
0
10
5.5548832657406368
20
-0.67403030191560309
30
0
0
SPLINE
5
268
100
AcDbEntity
8
0
100
AcDbSpline
70
0
71
3
72
8
73
4
74
0
42
0.000000001
43
0.0000000001
44
0.0000000001
40
3.4138941897580407e-06
40
3.4138941897580407e-06
40
3.4138941897580407e-06
40
3.4138941897580407e-06
40
1
40
1
40
1
40
1
10
5.5548832657848459
20
-0.67403030192098856
30
0
10
5.6387141904426059
20
-0.25279740809861495
30
0
10
5.6387130544742847
20
0.28916362756934688
30
0
10
5.5548829220358611
20
0.71041786180585709
30
0
0
ENDSEC
0
SECTION
2
OBJECTS
0
DICTIONARY
5
C
100
AcDbDictionary
3
ACAD_GROUP
350
D
3
ACAD_MLINESTYLE
350
17
0
DICTIONARY
5
D
100
AcDbDictionary
0
DICTIONARY
5
1A
330
C
100
AcDbDictionary
0
DICTIONARY
5
17
100
AcDbDictionary
0
ENDSEC
0
EOF
